<svg width="18" height="23" viewBox="0 0 18 23" fill="none" xmlns="http://www.w3.org/2000/svg">
<path fill-rule="evenodd" clip-rule="evenodd" d="M8.09998 0.25C4.70442 0.25 2.07724 3.22603 2.49841 6.59536L2.57776 7.23021C2.69388 8.15916 2.35455 9.08706 1.66654 9.72195C0.240863 11.0375 -0.155232 13.1315 0.691418 14.8769L0.794769 15.09C1.58394 16.7169 3.23324 17.75 5.04147 17.75H13.2623C14.822 17.75 16.2736 16.9532 17.1111 15.6373C18.2932 13.7799 17.9801 11.3432 16.3668 9.84496L16.3229 9.8042C15.5844 9.11833 15.2208 8.11912 15.3458 7.11901L15.4104 6.60208C15.832 3.22918 13.202 0.25 9.80289 0.25H8.09998ZM3.98682 6.40931C3.67757 3.93526 5.60667 1.75 8.09998 1.75H9.80289C12.2998 1.75 14.2317 3.93841 13.922 6.41603L13.8574 6.93296C13.6725 8.41174 14.2102 9.88919 15.3022 10.9033L15.3461 10.9441C16.4289 11.9497 16.6391 13.5852 15.8456 14.832C15.2835 15.7152 14.3092 16.25 13.2623 16.25H5.04147C3.8079 16.25 2.68275 15.5452 2.14438 14.4353L2.04102 14.2223C1.48294 13.0718 1.74404 11.6915 2.68379 10.8243C3.72755 9.86114 4.24234 8.45345 4.06618 7.04416L3.98682 6.40931Z" fill="#737373"/>
<path d="M6.78339 19.55C6.53486 19.2186 6.06476 19.1515 5.73339 19.4C5.40202 19.6485 5.33487 20.1186 5.58339 20.45L5.88339 20.85C7.53339 23.05 10.8334 23.05 12.4834 20.85L12.7834 20.45C13.0319 20.1186 12.9648 19.6485 12.6334 19.4C12.302 19.1515 11.8319 19.2186 11.5834 19.55L11.2834 19.95C10.2334 21.35 8.13339 21.35 7.08339 19.95L6.78339 19.55Z" fill="#737373"/>
</svg>
